# xmcd
#
# Track frame offsets:
#	150
#	13651
#	26664
#	40276
#	55190
#	69483
#	84127
#	102273
#	110108
#	119357
#	139192
#	172573
#	187967
#	193797
#	204831
#
# Disc length: 2979 seconds
#
# Revision: 0
# Processed by: cddbd v1.5.2PL0 Copyright (c) Steve Scherf et al.
# Submitted via: EZCDAudioConverter 2.1.7.1
#
DISCID=c20ba10f
DTITLE=V/A - Strange Breaks and Mr. Thing III 1/2
DYEAR=1900
DGENRE=
TTITLE0=Disco Orchestral - Do It Again
TTITLE1=Dum-Dum - Art The Grass
TTITLE2=John Fitch and Associates - Romantic Attitude
TTITLE3=The Internationals - Give A Damn
TTITLE4=Nu-Sound Express, Ltd - One More Time, You All
TTITLE5=Dynamic Concept - La Da Da
TTITLE6=Amral's Trinidad Cavaliers - It Sure Is Funky
TTITLE7=James Asher - Oriental Workload
TTITLE8=Özel Türkbas - Ozel's Dance Routine [Mr. Thing Re-Edit]
TTITLE9=Zulema - Giving Up
TTITLE10=Harry Beckett - Ring Within Rings
TTITLE11=Smiling Hard - Fire To The Galleon
TTITLE12=Woolwich Polytechnic School Concert Band - The Sweeny
TTITLE13=The Capprells with The Sul Brothers Band - Close Your Eyes
TTITLE14=Sharon Cash - Nature Boy
EXTD=
EXTT0=
EXTT1=
EXTT2=
EXTT3=
EXTT4=
EXTT5=
EXTT6=
EXTT7=
EXTT8=
EXTT9=
EXTT10=
EXTT11=
EXTT12=
EXTT13=
EXTT14=
PLAYORDER=
